<svg fill="none" height="24" viewBox="0 0 24 24" width="24" xmlns="http://www.w3.org/2000/svg"><path d="m8.11183 2.97505c-1.05209-.96673-2.66924-.96673-3.72133 0-.04309.03959-.08908.0856-.14881.14534l-.8975.89749c-.90311.90312-1.28223 2.20504-1.00517 3.45182 1.57197 7.0739 7.09651 12.5984 14.17038 14.1704 1.2468.277 2.5487-.1021 3.4518-1.0052l.8974-.8974c.0598-.0598.1058-.1058.1454-.1489.9668-1.0521.9668-2.6693 0-3.7213-.0396-.0432-.0856-.0892-.1454-.1489l-1.4692-1.4693c-1.0201-1.0201-2.5607-1.3119-3.8831-.7354-.7571.33-1.6391.163-2.2231-.421l-2.3968-2.3968c-.584-.584-.751-1.46596-.421-2.22307.5764-1.32246.2847-2.86299-.73541-3.88309l-1.46933-1.46933c-.05973-.05975-.10574-.10577-.14883-.14536z" fill="#2d264b"/></svg>