<svg fill="none" height="24" viewBox="0 0 24 24" width="24" xmlns="http://www.w3.org/2000/svg"><g fill="#2d264b"><path d="m6.29367 4.96556c-2.66682 1.93755-4.00023 2.90633-4.52393 4.33735-.04201.1148-.0798.23109-.11329.34866-.41744 1.46553.09187 3.03303 1.11051 6.16813 1.01863 3.135 1.52794 4.7025 2.72709 5.6428.0962.0754.19513.1473.29659.2155.42665.2867.89692.4766 1.45936.6025v-3.4608c0-2.6234 2.12665-4.75 4.75-4.75 2.6234 0 4.75 2.1266 4.75 4.75v3.4608c.5624-.1259 1.0327-.3158 1.4594-.6025.1014-.0682.2004-.1401.2966-.2155 1.1991-.9403 1.7084-2.5078 2.7271-5.6428 1.0186-3.1351 1.5279-4.7026 1.1105-6.16813-.0335-.11757-.0713-.23386-.1133-.34866-.5237-1.43102-1.8571-2.39979-4.5239-4.33734-2.6669-1.93756-4.0003-2.90634-5.5231-2.96221-.1222-.00448-.2444-.00448-.3666 0-1.5228.05587-2.85622 1.02465-5.52303 2.9622z"/><path d="m15.25 22.4732v-3.6535c0-1.795-1.4551-3.25-3.25-3.25s-3.25 1.455-3.25 3.25v3.6535c.87296.0547 1.9292.0547 3.25.0547s2.377 0 3.25-.0547z"/></g></svg>