<svg fill="none" height="24" viewBox="0 0 24 24" width="24" xmlns="http://www.w3.org/2000/svg"><g fill="#2d264b"><path d="m2.33322 6.40947c-.33322 1.23999-.33322 2.95061-.33322 5.59053 0 3.7497 0 5.6246.95491 6.9389.3084.4245.68169.7978 1.10616 1.1062 1.31433.9549 3.1892.9549 6.93893.9549h2c3.7497 0 5.6246 0 6.9389-.9549.4245-.3084.7978-.6817 1.1062-1.1062.9549-1.3143.9549-3.1892.9549-6.9389 0-2.64871 0-4.36194-.3366-5.60291l-2.1027 2.10277c-1.6323 1.63224-2.9115 2.91144-4.0437 3.77534-1.1589.8842-2.2517 1.4037-3.5171 1.4037-1.2655 0-2.35823-.5195-3.51716-1.4037-1.13226-.8639-2.41143-2.1431-4.0437-3.77536l-1.95519-1.95518z"/><path d="m3 5 .10885.09007.40702.36528 1.94326 1.94326c1.68166 1.68166 2.89068 2.88839 3.93348 3.68409 1.02549.7824 1.80159 1.0962 2.60729 1.0962.8056 0 1.5817-.3138 2.6072-1.0962 1.0428-.7957 2.2518-2.00243 3.9335-3.68409l2.3079-2.30791.1256-.12491c-.3084-.42447-.6107-.70248-1.0352-1.01088-1.3143-.95491-3.1892-.95491-6.9389-.95491h-2c-3.74973 0-5.6246 0-6.93893.95491-.42447.3084-.75267.62062-1.06107 1.04509z"/></g></svg>