<svg fill="none" height="24" viewBox="0 0 24 24" width="24" xmlns="http://www.w3.org/2000/svg"><path d="m8.18336 18 .4.6857c1.80004 3.0857 5.40004 3.0857 7.20004 0l.4-.6857m-11.81721-2.4504.10335.2131c.66377 1.3684 2.051 2.2373 3.5719 2.2373h8.22086c1.3033 0 2.5162-.6658 3.216-1.7653.9878-1.5521.7262-3.5882-.6219-4.8402l-.0439-.0407c-.9153-.85-1.3659-2.08837-1.211-3.32782l.0647-.51693c.3656-2.92526-1.9153-5.50905-4.8633-5.50905h-1.703c-2.94438 0-5.22253 2.58064-4.85732 5.50234l.07936.63485c.14614 1.16912-.28092 2.33691-1.1468 3.13591-1.18272 1.0914-1.51131 2.8285-.80895 4.2765z" stroke="#2d264b" stroke-linecap="round" stroke-width="1.5"/></svg>