<svg fill="none" height="24" viewBox="0 0 24 24" width="24" xmlns="http://www.w3.org/2000/svg"><path d="m2.75 12c0-.4142-.33579-.75-.75-.75s-.75.3358-.75.75zm3.24903-8 .4505.59962zm-1.99903 1.99903.55483.50464.02366-.02602.02113-.02812zm.01269-4.99568c.00185-.414213-.33244-.751495-.74665-.753343s-.75149.332437-.75334.746647zm-.75885 1.98236-.75-.00334zm3.68 3.68.00334.75zm1.98906.74114c.41421-.00185.74849-.33913.74664-.75334s-.33913-.7485-.75334-.74665zm-5.26052-1.50418-.59312.45902zm.3545.3545-.45902.59312zm-2.76688 5.74283c0 5.9371 4.81294 10.75 10.75 10.75v-1.5c-5.10863 0-9.25-4.1414-9.25-9.25zm10.75 10.75c5.9371 0 10.75-4.8129 10.75-10.75h-1.5c0 5.1086-4.1414 9.25-9.25 9.25zm10.75-10.75c0-5.93706-4.8129-10.75-10.75-10.75v1.5c5.1086 0 9.25 4.14137 9.25 9.25zm-10.75-10.75c-2.41966 0-4.65456.80032-6.45148 2.15038l.90101 1.19924c1.54606-1.16158 3.46683-1.84962 5.55047-1.84962zm-6.45148 2.15038c-.81333.61107-1.53707 1.33481-2.14814 2.14814l1.19924.90101c.5262-.70037 1.14954-1.32371 1.84991-1.84991zm-3.03582-2.403726-.00886 1.985716 1.49999.00669.00886-1.98571zm4.42448 6.419056 1.98572-.00886-.0067-1.49999-1.98571.00886zm-4.43334-4.43334c-.00345.77414-.00746 1.41813.04887 1.93398.05798.53093.18758 1.02026.51655 1.44534l1.18625-.91804c-.09017-.11652-.16839-.29389-.21166-.69014-.04492-.41134-.04363-.95503-.04002-1.76445zm4.42665 2.93335c-.80942.00361-1.3531.0049-1.76445-.04002-.39625-.04327-.57362-.12149-.69014-.21166l-.91804 1.18625c.42508.32897.91441.45857 1.44534.51655.51585.05633 1.15984.05232 1.93398.04887zm-3.86123.44597c.08908.11511.18712.2228.29316.3221l1.02532-1.09486c-.04782-.04478-.09204-.09335-.13223-.14528zm.29316.3221c.06245.05848.12766.11405.19544.1665l.91804-1.18625c-.03058-.02367-.06-.04873-.08816-.07511zm.08275-1.18941-.12492.13734 1.10966 1.00929.12492-.13734z" fill="#2d264b"/></svg>