<svg fill="none" height="24" viewBox="0 0 24 24" width="24" xmlns="http://www.w3.org/2000/svg"><path clip-rule="evenodd" d="m6.44444 3.25c-2.86881 0-5.19444 2.32563-5.19444 5.19444 0 .83174.47698 1.58976 1.22681 1.94966l.48736.234c1.15103.5525 1.15103 2.1913 0 2.7438l-.48736.234c-.74983.3599-1.22681 1.1179-1.22681 1.9497 0 2.8688 2.32563 5.1944 5.19444 5.1944h11.11116c2.8688 0 5.1944-2.3256 5.1944-5.1944 0-.8318-.477-1.5898-1.2268-1.9497l-.4874-.234c-1.151-.5525-1.151-2.1913 0-2.7438l.4874-.234c.7498-.3599 1.2268-1.11792 1.2268-1.94966 0-2.86881-2.3256-5.19444-5.1944-5.19444zm8.74276 5.56282c.2929.29289.2929.76776 0 1.06066l-5.65687 5.65682c-.29289.2929-.76777.2929-1.06066 0s-.29289-.7677 0-1.0606l5.65683-5.65688c.2929-.2929.7678-.2929 1.0607 0zm-6.1872 1.18718c-.55228 0-1-.44772-1-1s.44772-1 1-1 1 .44772 1 1-.44772 1-1 1zm6 6c-.5523 0-1-.4477-1-1s.4477-1 1-1 1 .4477 1 1-.4477 1-1 1z" fill="#2d264b" fill-rule="evenodd"/></svg>