<svg version="1.2" xmlns="http://www.w3.org/2000/svg" viewBox="0 0 512 512" width="512" height="512">
	<title>New Project</title>
	<defs>
		<clipPath clipPathUnits="userSpaceOnUse" id="cp1">
			<path d="m160.12 416.08c-75.34 0-136.23-60.9-136.23-136.23 0-75.33 60.89-136.22 136.23-136.22 75.33 0 136.22 60.89 136.22 136.22 0 75.33-60.89 136.23-136.22 136.23z"/>
		</clipPath>
	</defs>
	<style>
		.s0 { fill: #f8a91f } 
		.s1 { fill: #fde3cf } 
	</style>
	<g id="&lt;Group&gt; copy 2">
		<path id="&lt;Path&gt;" class="s0" d="m387 286.1c24.6 17.6 52.3-0.1 70-19 12.9-14.1 25.2-32.1 26.4-51.7 0.4-6.3-0.9-12.7-4-18.3-1.3-2.1-2.6-4.3-4.3-6.2-0.8-0.8-1.8-2-2.7-2.7-7.1-7.2-16.5-12.3-26.7-12.2-8.2 0-16 3.2-22.8 7.6-7 4.5-13.3 10.4-18.5 16.9-2.2 2.8-5.1 6.7-7.2 9.6-5.9 8.6-11.4 17.8-15.1 27.5-4.7 12.2-7.1 29.3 3.3 39.1 0 0 0 0 0 0l0.3 9.5q-5.9 5.3-12.1 10.3c-63.3 51-148.8 66.5-226.4 42.4-13-4.5-7.3-23.4 6.1-19.9 9.5 3.3 19.1 6 28.9 8 16.8 3.5 34.3 5.2 51.6 4.8 46.1-0.8 91.7-16.3 129-43.2 5-3.7 10-7.6 14.8-11.6 0 0 0.3 9.5 0.3 9.5-7.6-6.6-11-17-11.2-26.7-0.2-20.1 11.2-39.6 22.9-55.2 2.2-3 5.5-6.9 7.8-9.8 6.1-7.1 13.2-13.3 21.2-18.1 8.2-4.9 17.6-8.2 27.2-7.9 12 0.3 23 6.7 30.9 15.1 0.9 0.9 2.1 2.3 2.9 3.3 1.9 2.1 3.4 4.8 4.8 7.3 3.2 6.5 4.6 14 3.9 21.2-2.2 23.8-20.3 46.4-38 61.1-18 15-42.5 25.3-63.3 9.3z"/>
		<g id="&lt;Group&gt;">
			<path id="&lt;Path&gt;" class="s0" d="m205.1 326.1c28.6-7.9 55.6-21.7 78.4-40.7 34.8-28.5 58.6-69 68.3-112.7 0 0 6.7 1.3 6.7 1.3 22 4.8 39.9-6.8 50.7-25.6 2-3.7 3.9-7.5 5.4-11.5 3.1-8 5-16.5 6-25l20.6 2.9c-1.8 10.2-4.7 20.1-9.1 29.6-6.5 14.3-16.5 27.6-29.9 36.2-13.8 9-31.2 11.3-46.9 6.8 0 0 8.2-4.8 8.2-4.8-5.7 18-13.8 35.3-24 51.2-11 17.4-24.7 32.9-40.2 46.3-26.8 22.9-59.6 38.8-94.2 46z"/>
			<path id="&lt;Path&gt;" class="s0" d="m387.1 104.3l-23.3 77.4-1.3 4.3c-0.8-0.3-4.9-1.4-5.6-1.7-3.9-1.2-7.6-3.1-11.1-5.3-15.7-10.1-23.2-27.3-23-45.7 0-12.7 3.3-25.5 7.6-37.3 0 0 19.1 8.3 19.1 8.3-5.2 10.3-9.3 21-10.3 32.4-1.1 12.9 3 25 13.1 33.3 2.6 2.1 5.4 4 8.4 5.4 0 0-5.9 2.9-5.9 2.9z"/>
		</g>
		<g id="&lt;Clip Group&gt;" clip-path="url(#cp1)">
			<path id="&lt;Path&gt;" fill-rule="evenodd" class="s0" d="m159.2 415.2c-75.3 0-136.2-60.9-136.2-136.2 0-75.4 60.9-136.3 136.2-136.3 75.4 0 136.2 60.9 136.2 136.3 0 75.3-60.8 136.2-136.2 136.2z"/>
			<path id="&lt;Path&gt;" class="s1" d="m78 260.4c-0.3 14 2.1 28 6.5 41.3 8.8 27.2 29.5 49.5 56.7 59 13.5 4.9 27.9 7.1 42.2 7.6-14.4 0.1-28.9-1.5-42.7-6-36.9-11.3-60.1-43-67.2-80-1.3-6.8-2.2-13.7-2.4-20.7 0-0.5 0-0.9 0-1.5z"/>
			<path id="&lt;Path&gt;" fill-rule="evenodd" class="s0" d="m160.1 416.1c-75.3 0-136.2-60.9-136.2-136.2 0-75.4 60.9-136.3 136.2-136.3 75.3 0 136.2 60.9 136.2 136.3 0 75.3-60.9 136.2-136.2 136.2z"/>
		</g>
	</g>
</svg>