<svg version="1.2" xmlns="http://www.w3.org/2000/svg" viewBox="0 0 1280 720" width="1280" height="720">
	<title>New Project</title>
	<defs>
		<clipPath clipPathUnits="userSpaceOnUse" id="cp1">
			<path d="m301.12 489.54c-75.34 0-136.23-60.89-136.23-136.22 0-75.33 60.89-136.23 136.23-136.23 75.33 0 136.22 60.9 136.22 136.23 0 75.33-60.89 136.22-136.22 136.22z"/>
		</clipPath>
		<clipPath clipPathUnits="userSpaceOnUse" id="cp2">
			<path d="m301.12 489.54c-75.34 0-136.23-60.89-136.23-136.22 0-75.33 60.89-136.23 136.23-136.23 75.33 0 136.22 60.9 136.22 136.23 0 75.33-60.89 136.22-136.22 136.22z"/>
		</clipPath>
	</defs>
	<style>
		.s0 { fill: #f8a91f } 
		.s1 { fill: #fde3cf } 
		.s2 { fill: #632713 } 
	</style>
	<g id="&lt;Group&gt;">
		<g id="&lt;Group&gt;">
			<path id="&lt;Path&gt;" class="s0" d="m528 359.6c24.6 17.6 52.3-0.1 70-19.1 12.9-14 25.2-32.1 26.4-51.6 0.4-6.4-0.9-12.7-4-18.3-1.3-2.2-2.6-4.4-4.3-6.2-0.8-0.8-1.8-2-2.7-2.8-7.1-7.1-16.5-12.3-26.7-12.2-8.2 0-16 3.2-22.8 7.6-7 4.6-13.3 10.5-18.5 17-2.2 2.8-5.1 6.7-7.2 9.6-5.9 8.5-11.4 17.7-15.1 27.5-4.7 12.2-7.1 29.3 3.3 39.1 0 0 0 0 0 0l0.3 9.4q-5.9 5.4-12.1 10.3c-63.3 51.1-148.8 66.6-226.4 42.5-13-4.6-7.3-23.4 6.1-19.9 9.5 3.3 19.1 5.9 28.9 8 16.8 3.4 34.3 5.2 51.6 4.8 46.1-0.8 91.7-16.3 129-43.3 5-3.6 10-7.5 14.8-11.6 0 0 0.3 9.5 0.3 9.5-7.6-6.5-11-16.9-11.2-26.7-0.2-20.1 11.2-39.5 22.9-55.1 2.2-3 5.5-7 7.8-9.8 6.1-7.1 13.2-13.3 21.2-18.1 8.2-4.9 17.6-8.3 27.2-7.9 12 0.3 23 6.6 30.9 15.1 0.9 0.9 2.1 2.2 2.9 3.2 1.9 2.2 3.4 4.8 4.8 7.4 3.2 6.5 4.6 14 3.9 21.2-2.2 23.8-20.3 46.3-38 61.1-18 15-42.5 25.3-63.3 9.3z"/>
			<g id="&lt;Group&gt;">
				<path id="&lt;Path&gt;" class="s0" d="m346.1 399.6c28.6-7.9 55.6-21.7 78.4-40.7 34.8-28.6 58.6-69 68.3-112.7 0 0 6.7 1.3 6.7 1.3 22 4.8 39.9-6.8 50.7-25.6 2-3.7 3.9-7.5 5.4-11.5 3.1-8 5-16.5 6-25.1l20.6 3c-1.8 10.1-4.7 20.1-9.1 29.5-6.5 14.4-16.5 27.7-29.9 36.2-13.8 9.1-31.2 11.4-46.9 6.9 0 0 8.2-4.8 8.2-4.8-5.7 18-13.8 35.3-24 51.2-11 17.4-24.7 32.9-40.2 46.3-26.8 22.9-59.6 38.8-94.2 46z"/>
				<path id="&lt;Path&gt;" class="s0" d="m528.1 177.7l-23.3 77.4-1.3 4.4c-0.8-0.3-4.9-1.5-5.6-1.7-3.9-1.3-7.6-3.1-11.1-5.3-15.7-10.2-23.2-27.3-23-45.7 0-12.8 3.3-25.6 7.6-37.3 0 0 19.1 8.2 19.1 8.2-5.2 10.4-9.3 21-10.3 32.5-1.1 12.8 3 25 13.1 33.3 2.6 2.1 5.4 4 8.4 5.3 0 0-5.9 3-5.9 3z"/>
			</g>
			<g id="&lt;Clip Group&gt;" clip-path="url(#cp1)">
				<path id="&lt;Path&gt;" fill-rule="evenodd" class="s0" d="m300.2 488.7c-75.3 0-136.2-60.9-136.2-136.3 0-75.3 60.9-136.2 136.2-136.2 75.4 0 136.2 60.9 136.2 136.2 0 75.4-60.8 136.3-136.2 136.3z"/>
				<path id="&lt;Path&gt;" class="s1" d="m219 333.8c-0.3 14 2.1 28.1 6.5 41.3 8.8 27.3 29.5 49.6 56.7 59 13.5 5 27.9 7.2 42.2 7.7-14.4 0.1-28.9-1.6-42.7-6-36.9-11.3-60.1-43-67.2-80.1-1.3-6.8-2.2-13.7-2.4-20.6 0-0.5 0-0.9 0-1.5z"/>
				<path id="&lt;Path&gt;" fill-rule="evenodd" class="s0" d="m301.1 489.5c-75.3 0-136.2-60.8-136.2-136.2 0-75.3 60.9-136.2 136.2-136.2 75.3 0 136.2 60.9 136.2 136.2 0 75.4-60.9 136.2-136.2 136.2z"/>
			</g>
		</g>
		<g id="&lt;Group&gt; copy 2">
			<path id="&lt;Path&gt;" class="s0" d="m528 359.6c24.6 17.6 52.3-0.1 70-19.1 12.9-14 25.2-32.1 26.4-51.6 0.4-6.4-0.9-12.7-4-18.3-1.3-2.2-2.6-4.4-4.3-6.2-0.8-0.8-1.8-2-2.7-2.8-7.1-7.1-16.5-12.3-26.7-12.2-8.2 0-16 3.2-22.8 7.6-7 4.6-13.3 10.5-18.5 17-2.2 2.8-5.1 6.7-7.2 9.6-5.9 8.5-11.4 17.7-15.1 27.5-4.7 12.2-7.1 29.3 3.3 39.1 0 0 0 0 0 0l0.3 9.4q-5.9 5.4-12.1 10.3c-63.3 51.1-148.8 66.6-226.4 42.5-13-4.6-7.3-23.4 6.1-19.9 9.5 3.3 19.1 5.9 28.9 8 16.8 3.4 34.3 5.2 51.6 4.8 46.1-0.8 91.7-16.3 129-43.3 5-3.6 10-7.5 14.8-11.6 0 0 0.3 9.5 0.3 9.5-7.6-6.5-11-16.9-11.2-26.7-0.2-20.1 11.2-39.5 22.9-55.1 2.2-3 5.5-7 7.8-9.8 6.1-7.1 13.2-13.3 21.2-18.1 8.2-4.9 17.6-8.3 27.2-7.9 12 0.3 23 6.6 30.9 15.1 0.9 0.9 2.1 2.2 2.9 3.2 1.9 2.2 3.4 4.8 4.8 7.4 3.2 6.5 4.6 14 3.9 21.2-2.2 23.8-20.3 46.3-38 61.1-18 15-42.5 25.3-63.3 9.3z"/>
			<g id="&lt;Group&gt;">
				<path id="&lt;Path&gt;" class="s0" d="m346.1 399.6c28.6-7.9 55.6-21.7 78.4-40.7 34.8-28.6 58.6-69 68.3-112.7 0 0 6.7 1.3 6.7 1.3 22 4.8 39.9-6.8 50.7-25.6 2-3.7 3.9-7.5 5.4-11.5 3.1-8 5-16.5 6-25.1l20.6 3c-1.8 10.1-4.7 20.1-9.1 29.5-6.5 14.4-16.5 27.7-29.9 36.2-13.8 9.1-31.2 11.4-46.9 6.9 0 0 8.2-4.8 8.2-4.8-5.7 18-13.8 35.3-24 51.2-11 17.4-24.7 32.9-40.2 46.3-26.8 22.9-59.6 38.8-94.2 46z"/>
				<path id="&lt;Path&gt;" class="s0" d="m528.1 177.7l-23.3 77.4-1.3 4.4c-0.8-0.3-4.9-1.5-5.6-1.7-3.9-1.3-7.6-3.1-11.1-5.3-15.7-10.2-23.2-27.3-23-45.7 0-12.8 3.3-25.6 7.6-37.3 0 0 19.1 8.2 19.1 8.2-5.2 10.4-9.3 21-10.3 32.5-1.1 12.8 3 25 13.1 33.3 2.6 2.1 5.4 4 8.4 5.3 0 0-5.9 3-5.9 3z"/>
			</g>
			<g id="&lt;Clip Group&gt;" clip-path="url(#cp2)">
				<path id="&lt;Path&gt;" fill-rule="evenodd" class="s0" d="m300.2 488.7c-75.3 0-136.2-60.9-136.2-136.3 0-75.3 60.9-136.2 136.2-136.2 75.4 0 136.2 60.9 136.2 136.2 0 75.4-60.8 136.3-136.2 136.3z"/>
				<path id="&lt;Path&gt;" class="s1" d="m219 333.8c-0.3 14 2.1 28.1 6.5 41.3 8.8 27.3 29.5 49.6 56.7 59 13.5 5 27.9 7.2 42.2 7.7-14.4 0.1-28.9-1.6-42.7-6-36.9-11.3-60.1-43-67.2-80.1-1.3-6.8-2.2-13.7-2.4-20.6 0-0.5 0-0.9 0-1.5z"/>
				<path id="&lt;Path&gt;" fill-rule="evenodd" class="s0" d="m301.1 489.5c-75.3 0-136.2-60.8-136.2-136.2 0-75.3 60.9-136.2 136.2-136.2 75.3 0 136.2 60.9 136.2 136.2 0 75.4-60.9 136.2-136.2 136.2z"/>
			</g>
		</g>
		<g id="&lt;Group&gt;">
			<g id="&lt;Group&gt;">
				<path id="&lt;Compound Path&gt;" class="s0" d="m844.2 389.9c2.6 0 5.4-0.2 8.6-0.6 2.8-11.4 5.4-20.3 7.2-22.4 6-4.6 25.6-21.2 29.7-21.2 1.1 0 3.3 0.5 3.5 2-3.5 8.6-7.3 21.5-10.8 36 4.3-0.9 7.8-1.5 9.5-1.5 1.3 0 2.8 0.2 2.8 1.5 0 2.8-3.9 12.7-7.3 12.7h-7.8c-6.7 30.9-12.1 63.9-12.3 71.8 0 0.9-0.2 2.9 1.1 2.9 4.3 0 15.5-6.1 17.5-6.1 0.8 0 1.2 0.7 1.2 3l-0.6 2.8c-0.2 2-27.2 19-36.9 19-6.5 0-11.6-12.3-11.6-20.5 0-2.8 6.4-40.5 12.7-69.7-3.9 1.1-6.5 1.8-8.2 1.8-1.1 0-2-1.8-2-3.7 0.3-2.1 0.9-7.8 3.7-7.8z"/>
				<path id="&lt;Compound Path&gt;" class="s0" d="m989.2 387.1c1.1 0 3.2 0.5 3.2 2-7.3 18.1-16.2 69.9-16.2 78.9 0 1.1 0 2.2 1.1 2.2 4.3 0 8-3.7 9.9-3.7 0.9 0 0.9 0.5 0.9 2.2 0 0.8-0.2 2.6-0.4 3.6-0.5 2-21.6 16.7-29.4 16.7-6.9 0-11.4-13.2-11.4-21.4v-3.2c-9.7 8.6-23.5 24.1-29.8 24.1-11.4 0-18.7-14.6-18.7-23.9 0-14.9 4.1-50.3 17.7-62.4 9.9-8.8 35.5-16.6 42.9-16.6 1.3 0 4.1 0 4.1 1.5 0 2.2-3 10-4.8 11-5.6-0.2-10.3-1-14-1-2.1 0-3 2.1-3.7 3.6-7.3 18.8-13.5 38-13.5 66.9 0 1.1 0.8 1.1 1.5 1.1 4.5 0 14-7.8 19.4-11.9 2.6-18.8 9-52.8 13.8-58 5.8-4.5 23.3-11.7 27.4-11.7zm4.1-35.8c7.7-2.6 13.4-4.7 14-4.7 0.6 0 0.9 1.1 0.9 2.4-5.6 10.7-18.2 16.8-26.1 22.6l-13.4 1.9c-7.8 2.6-24.6-3.4-24.6-3.8-6-5-17.7-10.4-20.5-19.7 0.4-1.3 1.1-2.3 1.5-2.3 0.9 0 4.3 0.4 11.4 3 0.3 0 0.9 1.7 0.9 1.9 0.7 3.7 7.8 10.8 24.4 13 10.3-0.3 28-9.1 29.8-12.3 0-0.5 1.2-2 1.7-2zm88.2-11.8c0.2 0.2 0 1-0.4 1.9-14.9 6-55.7 30-58.7 31.9-0.2 0.2-1.5 0.9-1.7 0.7-6.1-1.1-10.6-2-11-2.2-0.2-0.2 0-1.1 0.4-1.9 7.8-4.8 52.2-27.8 58.7-31.9 0.2-0.3 1.5-0.9 1.7-0.7 6 1.1 10.6 1.7 11 2.2z"/>
				<path id="&lt;Compound Path&gt;" class="s0" d="m1017.7 488.5c-11.5 0-18.8-14.6-18.8-23.9 0-14.9 4.1-50.3 17.7-62.4 9.9-8.8 32.1-16.6 45.9-16.6 1.3 0 4.1 0 4.1 1.5 0 2.2-2.8 11.9-4.5 13-5.6-0.2-13.6-3-17.3-3-2.1 0-3 2.1-3.6 3.6-7.4 18.8-13.6 45.1-13.6 74 0 1.1 0.8 1.1 1.5 1.1 4.7 0 21.1-4.7 27-8.4 0.8-0.7 1.5-0.9 2.1-0.9 0.9 0 1.3 0.7 1.3 1.5 0 2.8-3.2 8.7-5.8 10-13.2 6.6-29.1 10.5-36 10.5z"/>
			</g>
		</g>
		<g id="&lt;Group&gt;">
			<path id="&lt;Compound Path&gt;" class="s2" d="m783.3 264.7v29.3h-39.5v88.4h-34.3v-88.4h-39.4v-29.3h39.4 34.3z"/>
			<g id="&lt;Group&gt;">
				<path id="&lt;Path&gt;" class="s2" d="m897.6 350.2c-1.5 3.9-3.1 8.8-4.7 14.2q-1.4 4.7-2.8 9.9 0.1 0 0.1 0 0.7 0 1.6 0.1c0.6 0 1.3 0.1 2.1 0.4 0.6 0.2 1.2 0.4 1.9 0.8 0.9 0.4 1.9 1.2 2.8 2.4 0.5 0.6 0.9 1.4 1.1 2.2q0.4 1.1 0.5 2.2h10.9z"/>
				<path id="&lt;Path&gt;" class="s2" d="m887.2 170.7l-9.7-1.7-8.7 58.4 9.7 1.6z"/>
				<path id="&lt;Compound Path&gt;" fill-rule="evenodd" class="s2" d="m847.5 372.7h-30.2l-4.5 9.7h-34.3l54.1-117.7h29.3l30.7 73.4q-1.1-0.4-2-0.6c-0.9-0.1-1.7-0.2-2.5-0.2-0.8 0-1.4 0.1-1.9 0.2-1 0.2-1.7 0.4-2.4 0.7-1.3 0.6-2.5 1.2-3.7 2-2.2 1.3-4.6 3-7.1 4.8-3.7 2.7-7.7 5.9-11.2 8.7-1.8 1.4-3.4 2.7-4.8 3.8-1.4 1.1-2.6 2.1-3.4 2.7l-0.8 0.5-0.5 0.7c-0.7 0.9-1.1 1.6-1.5 2.3-0.6 1.3-1.2 2.7-1.7 4.2q-0.8 2.2-1.6 4.8zm-16.1-29.6h27.2l-13-29.5z"/>
				<path id="&lt;Path&gt;" class="s2" d="m847.3 239.2l49.6 22.2 3.8-8.8-53.4-23.8-54.1 23.8 4.2 8.8z"/>
			</g>
			<g id="&lt;Group&gt;">
				<path id="&lt;Path&gt;" class="s2" d="m921.9 339.5c0.6-0.1 1.3-0.3 2.1-0.3 0.4 0 0.7 0.1 1.1 0.1q0.5 0 1.1 0.1 1.1 0.2 2.8 0.6c2.2 0.5 5.2 1.3 9 2.7q0.6 0.3 1.1 0.5c0.7 0.4 1.1 0.8 1.4 1.1 0.7 0.6 0.9 1 1.1 1.3q0.2 0.2 0.3 0.5 0.2 0.2 0.3 0.5 0.1 0.3 0.3 0.5c0.3 0.7 0.5 1.2 0.7 1.8 0 0.2 0.1 0.4 0.2 0.8q0 0 0 0 0.1 0.2 0.3 0.4c0.5 0.6 1.4 1.5 2.9 2.4 1.7 1.1 4.1 2.3 7.2 3.2v-45.4l24.6 32.6 24.6-32.6v28.9q0.7-0.3 1.3-0.5c0.4-0.1 0.7-0.2 1.1-0.3 0.3 0 0.5-0.1 1-0.2 0.2 0 0.5 0 1-0.1 0.7 0 1.4 0.1 2.1 0.3 0.7 0.2 1.4 0.5 2 0.9 1.1 0.7 1.9 1.6 2.4 2.3q0.4 0.8 0.7 1.4 0.3 0.8 0.5 1.4 0.2 0.9 0.2 1.6 0.1 0.9 0.1 1.6v1.8l-0.8 1.5c-1.3 2.6-3 4.9-4.7 7-1.8 2.1-3.7 4-5.7 5.7q-0.6 0.5-1.2 1v3.7q0.1-0.3 0.2-0.6c0.2-0.7 0.4-1.3 0.8-2l0.9-1.8 1.7-1q1.4-0.9 3.8-2.2c1.5-0.9 3.3-1.9 5.4-3 4.1-2.3 9.2-5 14.4-7.8q3.5-1.8 7-3.7v-81.7h-34.2l-24.6 34.2-24.6-34.2h-34.2v76.2c0.5-0.4 1.2-0.8 2.3-1.2z"/>
				<path id="&lt;Path&gt;" class="s2" d="m919.6 358.4v23.7h19q2.5-0.8 5-1.5 4.1-1.2 7.6-1.9c-1.7-0.4-3.3-0.8-4.7-1.3q-2.3-0.6-3.9-1.2c-0.6-0.3-1.1-0.5-1.6-0.7-0.3-0.1-0.5-0.2-0.9-0.4-0.2-0.1-0.4-0.3-0.7-0.5-0.2-0.1-0.4-0.2-0.7-0.5q-0.1 0-0.1-0.1c-0.9-0.7-2-1.5-3.3-2.4-1.4-0.9-3-2-4.6-3.2-3.4-2.3-7-5-10.1-8.7q-0.5-0.7-1-1.3z"/>
			</g>
		</g>
		<g id="&lt;Group&gt;">
			<path id="&lt;Compound Path&gt;" class="s2" d="m679.7 543.6v-23.3h-9.2v-4.4h23.5v4.4h-9.2v23.3z"/>
			<path id="&lt;Compound Path&gt;" class="s2" d="m703.8 543.9q-2.4 0-4.2-0.8-1.8-0.8-2.7-2.3-1-1.4-1-3.2 0-1.8 0.8-3.2 0.9-1.5 2.8-2.3 2-0.8 5.2-0.8h6.1v3.3h-5.8q-2.5 0-3.3 0.8-0.9 0.8-0.9 2 0 1.3 1 2.1 1.1 0.8 3 0.8 1.8 0 3.3-0.8 1.4-0.9 2.1-2.5l0.8 3q-0.8 1.8-2.6 2.9-1.8 1-4.6 1zm6.6-0.3v-4.3l-0.2-0.9v-7.4q0-2.2-1.4-3.4-1.3-1.2-4-1.2-1.7 0-3.4 0.5-1.7 0.6-2.9 1.6l-2-3.6q1.8-1.3 4.1-2 2.3-0.7 4.9-0.7 4.6 0 7.1 2.2 2.5 2.2 2.5 6.8v12.4zm-12.1-24l5.4-4.2h4.3l5.4 4.2h-4.1l-5.3-3.3h3.7l-5.3 3.3zm11.9-3.6l4.5-4.7h5.3l-6 4.7z"/>
			<path id="&lt;Compound Path&gt;" class="s2" d="m748 522.2q2.5 0 4.5 1 1.9 1 3 3.1 1.2 2 1.2 5.2v12.1h-4.9v-11.5q0-2.8-1.3-4.1-1.2-1.4-3.5-1.4-1.6 0-2.9 0.7-1.2 0.7-1.9 2.1-0.7 1.4-0.7 3.5v10.7h-4.9v-11.5q0-2.8-1.3-4.1-1.2-1.4-3.5-1.4-1.6 0-2.9 0.7-1.2 0.7-1.9 2.1-0.7 1.4-0.7 3.5v10.7h-4.9v-21.1h4.7v5.7l-0.9-1.7q1.1-2.1 3.1-3.2 2.1-1.1 4.7-1.1 3 0 5.2 1.5 2.1 1.4 2.8 4.5l-1.9-0.7q1-2.4 3.4-3.8 2.4-1.5 5.5-1.5z"/>
			<path id="&lt;Compound Path&gt;" class="s2" d="m785.8 522.2q2.6 0 4.6 1 1.9 1 3.1 3.1 1.1 2 1.1 5.2v12.1h-4.9v-11.5q0-2.8-1.3-4.1-1.3-1.4-3.7-1.4-1.8 0-3.1 0.7-1.3 0.7-2.1 2.1-0.7 1.4-0.7 3.5v10.7h-4.9v-21.1h4.7v5.7l-0.8-1.7q1-2.1 3.1-3.2 2.2-1.1 4.9-1.1z"/>
			<path id="&lt;Compound Path&gt;" fill-rule="evenodd" class="s2" d="m809.9 542.7q-3.1 0-5.5-1.3-2.4-1.3-3.8-3.6-1.4-2.3-1.4-5.3 0-3.1 1.4-5.4 1.4-2.3 3.8-3.6 2.4-1.3 5.5-1.3 2.7 0 4.8 1.1 1.4 0.7 2.5 2v-2.8h4.7v17.9q0 5.7-2.9 8.4-3 2.8-8.5 2.8-3 0-5.7-0.8-2.8-0.8-4.6-2.3l2.2-3.7q1.4 1.2 3.5 1.9 2.1 0.7 4.4 0.7 3.4 0 5-1.6 1.6-1.6 1.6-4.8v-1.2q-0.9 1.1-2.2 1.8-2.1 1.1-4.8 1.1zm0.7-4.2q1.9 0 3.3-0.8 1.5-0.8 2.3-2.1 0.8-1.4 0.8-3.1 0-1.9-0.8-3.2-0.8-1.3-2.3-2.1-1.4-0.7-3.3-0.7-1.8 0-3.3 0.7-1.5 0.8-2.3 2.1-0.8 1.3-0.8 3.2 0 1.7 0.8 3.1 0.8 1.3 2.3 2.1 1.5 0.8 3.3 0.8z"/>
			<path id="&lt;Compound Path&gt;" fill-rule="evenodd" class="s2" d="m837.9 543.9q-3.3 0-5.8-1.4-2.5-1.4-4-3.9-1.5-2.4-1.5-5.5 0-3.2 1.5-5.7 1.4-2.4 4-3.8 2.5-1.4 5.8-1.4 3.2 0 5.8 1.4 2.5 1.4 4 3.8 1.4 2.5 1.4 5.7 0 3.1-1.4 5.5-1.5 2.5-4 3.9-2.6 1.4-5.8 1.4zm0-4.2q1.8 0 3.2-0.8 1.4-0.8 2.2-2.3 0.8-1.6 0.8-3.5 0-2.1-0.8-3.5-0.8-1.5-2.2-2.3-1.4-0.8-3.2-0.8-1.8 0-3.2 0.8-1.4 0.8-2.3 2.3-0.8 1.4-0.8 3.5 0 1.9 0.8 3.5 0.9 1.5 2.3 2.3 1.4 0.8 3.2 0.8z"/>
			<path id="&lt;Compound Path&gt;" class="s2" d="m865.8 522.2q2.6 0 4.6 1 1.9 1 3.1 3.1 1.2 2 1.2 5.2v12.1h-5v-11.5q0-2.8-1.3-4.1-1.3-1.4-3.7-1.4-1.7 0-3.1 0.7-1.3 0.7-2.1 2.1-0.7 1.4-0.7 3.5v10.7h-4.9v-21.1h4.7v5.7l-0.8-1.7q1-2.1 3.2-3.2 2.1-1.1 4.8-1.1z"/>
			<path id="&lt;Compound Path&gt;" class="s2" d="m879.6 549.6l2.3-8.8 0.7 3q-1.4 0-2.3-0.9-0.9-0.8-0.9-2.3 0-1.5 0.9-2.4 0.9-0.9 2.3-0.9 1.4 0 2.3 0.9 0.9 0.9 0.9 2.4 0 0.4-0.1 0.9-0.1 0.4-0.3 1-0.2 0.6-0.5 1.5l-2.1 5.6z"/>
			<path id="&lt;Compound Path&gt;" class="s2" d="m907.5 543.6v-23.3h-9.1v-4.4h23.5v4.4h-9.2v23.3z"/>
			<path id="&lt;Compound Path&gt;" class="s2" d="m931.6 543.9q-2.4 0-4.1-0.8-1.8-0.8-2.8-2.3-0.9-1.4-0.9-3.2 0-1.8 0.8-3.2 0.9-1.5 2.8-2.3 1.9-0.8 5.1-0.8h6.2v3.3h-5.8q-2.5 0-3.4 0.8-0.9 0.8-0.9 2 0 1.3 1.1 2.1 1 0.8 2.9 0.8 1.9 0 3.3-0.8 1.4-0.9 2.1-2.5l0.8 3q-0.7 1.8-2.5 2.9-1.8 1-4.7 1zm6.7-0.3v-4.3l-0.3-0.9v-7.4q0-2.2-1.3-3.4-1.3-1.2-4-1.2-1.8 0-3.5 0.5-1.7 0.6-2.9 1.6l-1.9-3.6q1.7-1.3 4.1-2 2.3-0.7 4.8-0.7 4.6 0 7.1 2.2 2.5 2.2 2.5 6.8v12.4zm-4.5-23.7q-2.8 0-4.7-1.2-1.9-1.2-2.1-3.3h3.1q0.1 0.9 1.2 1.4 1 0.6 2.5 0.6 1.6 0 2.6-0.6 1-0.5 1.1-1.4h3.2q-0.3 2.1-2.2 3.3-1.8 1.2-4.7 1.2zm-3-5.6l4.5-4.6h5.3l-6 4.6z"/>
			<path id="&lt;Compound Path&gt;" class="s2" d="m958.9 543.9q-3.3 0-5.9-1.4-2.6-1.4-4.1-3.9-1.4-2.4-1.4-5.5 0-3.2 1.4-5.7 1.5-2.4 4.1-3.8 2.6-1.4 5.9-1.4 3 0 5.4 1.3 2.4 1.3 3.6 3.7l-3.8 2.2q-0.9-1.5-2.3-2.2-1.4-0.7-2.9-0.7-1.9 0-3.3 0.8-1.5 0.8-2.3 2.3-0.9 1.4-0.9 3.5 0 2 0.9 3.5 0.8 1.5 2.3 2.3 1.4 0.8 3.3 0.8 1.5 0 2.9-0.7 1.4-0.8 2.3-2.3l3.8 2.2q-1.2 2.4-3.6 3.7-2.4 1.3-5.4 1.3z"/>
			<path id="&lt;Compound Path&gt;" class="s2" d="m995 522.2q2.6 0 4.6 1 1.9 1 3.1 3.1 1.1 2 1.1 5.2v12.1h-4.9v-11.5q0-2.8-1.3-4.1-1.3-1.4-3.7-1.4-1.8 0-3.1 0.7-1.3 0.7-2.1 2.1-0.7 1.4-0.7 3.5v10.7h-4.9v-21.1h4.7v5.7l-0.8-1.7q1-2.1 3.1-3.2 2.2-1.1 4.9-1.1z"/>
			<path id="&lt;Compound Path&gt;" class="s2" d="m1022.1 522.2q2.6 0 4.5 1 2 1 3.2 3.1 1.1 2 1.1 5.2v12.1h-4.9v-11.5q0-2.8-1.3-4.1-1.3-1.4-3.7-1.4-1.8 0-3.1 0.7-1.4 0.7-2.1 2.1-0.7 1.4-0.7 3.5v10.7h-4.9v-29.3h4.9v13.9l-1.1-1.7q1.1-2.1 3.2-3.2 2.1-1.1 4.9-1.1z"/>
			<path id="&lt;Compound Path&gt;" fill-rule="evenodd" class="s2" d="m1046.7 543.9q-3.3 0-5.8-1.4-2.5-1.4-4-3.9-1.4-2.4-1.4-5.5 0-3.2 1.4-5.7 1.5-2.4 4-3.8 2.6-1.4 5.9-1.4 1 0 1.7 0.1 0.8 0.1 1.5 0.2 0.7 0 1.5 0 1.4 0 2.1-0.7 0.7-0.8 0.7-1.9 0-0.7-0.3-1.3-0.2-0.6-0.5-1.1l2.9-1.1q0.6 0.7 0.9 1.7 0.3 0.9 0.3 2 0 1.7-0.7 3-0.8 1.2-2.3 1.9-0.1 0-0.1 0 0.9 0.8 1.6 1.9 1.9 2.6 1.9 6.2 0 3.1-1.5 5.5-1.4 2.5-4 3.9-2.5 1.4-5.8 1.4zm0-4.2q1.8 0 3.2-0.8 1.4-0.8 2.2-2.3 0.9-1.6 0.9-3.5 0-2.1-0.8-3.5-0.8-1.5-2.3-2.3-1.4-0.8-3.2-0.8-1.7 0-3.2 0.8-1.4 0.8-2.2 2.3-0.9 1.4-0.9 3.5 0 1.9 0.9 3.5 0.8 1.5 2.2 2.3 1.5 0.8 3.2 0.8zm-3.3-20.1l5.3-5.4h5.9l-7 5.4z"/>
			<path id="&lt;Compound Path&gt;" class="s2" d="m1075.9 543.9q-1.4 0-2.3-0.9-0.9-0.9-0.9-2.2 0-1.3 0.9-2.2 0.9-0.8 2.3-0.8 1.3 0 2.2 0.8 0.9 0.9 0.9 2.2 0 1.3-0.9 2.2-0.9 0.9-2.2 0.9zm-2-9.5l-1-18.5h5.9l-1 18.5z"/>
		</g>
	</g>
</svg>