<svg width="18" height="18" viewBox="0 0 18 18" fill="none" xmlns="http://www.w3.org/2000/svg">
<path d="M8.55867 4.14714L9.48936 7.67047C9.53727 7.85288 9.64067 8.01501 9.78472 8.13358C9.92876 8.25215 10.106 8.32105 10.2911 8.3304L13.8668 8.51024C14.7154 8.55292 15.012 9.6772 14.3003 10.1512L11.2997 12.1466C11.1445 12.2499 11.0253 12.4005 10.9591 12.5769C10.893 12.7534 10.8832 12.9465 10.9314 13.1287L11.8621 16.652C12.0828 17.4877 11.1251 18.1253 10.4643 17.5825L7.67914 15.2938C7.53517 15.1754 7.35802 15.1066 7.17312 15.0973C6.98821 15.088 6.80505 15.1387 6.64993 15.2421L3.64918 17.2397C2.93747 17.7135 2.04861 16.983 2.35207 16.1737L3.63134 12.7615C3.69754 12.5851 3.70729 12.392 3.65921 12.2098C3.61112 12.0277 3.50767 11.8658 3.36368 11.7475L0.579484 9.4589C-0.0822958 8.9158 0.326128 7.82699 1.17423 7.86964L4.75018 8.04949C4.93524 8.05872 5.11852 8.00793 5.27373 7.90442C5.42894 7.80091 5.54809 7.64999 5.61409 7.47333L6.89325 4.06338C7.19678 3.25283 8.33801 3.31022 8.55867 4.14714Z" fill="#231F20"/>
<path d="M3.11948 17.5115C2.90862 17.5001 2.70693 17.4205 2.54366 17.2842C2.37765 17.151 2.25831 16.9666 2.20336 16.7584C2.14841 16.5503 2.16078 16.3295 2.23863 16.1288L3.51813 12.7169C3.5754 12.5649 3.58392 12.3984 3.54246 12.2414C3.50099 12.0843 3.41169 11.9449 3.28741 11.843L0.501724 9.55512C0.337773 9.42041 0.21996 9.23615 0.165171 9.02876C0.110382 8.82137 0.121429 8.6015 0.19673 8.40064C0.27203 8.19979 0.407718 8.02827 0.584346 7.91067C0.760974 7.79307 0.969474 7.73543 1.17996 7.74601L4.7564 7.92588C4.91578 7.93433 5.07377 7.89088 5.20754 7.80182C5.34131 7.71277 5.44392 7.58271 5.50055 7.43044L6.78006 4.01828C6.85535 3.81739 6.99105 3.64584 7.16769 3.52822C7.34434 3.4106 7.55287 3.35295 7.76339 3.36354C7.9739 3.37413 8.17559 3.45241 8.33955 3.58716C8.5035 3.72191 8.6213 3.90621 8.67605 4.11364L9.60675 7.63696C9.64781 7.79414 9.73686 7.93384 9.86102 8.03587C9.98517 8.1379 10.138 8.19698 10.2974 8.20457L13.8731 8.38441C14.0837 8.39495 14.2854 8.47319 14.4493 8.6079C14.6133 8.74261 14.7311 8.92688 14.7859 9.13428C14.8407 9.34169 14.8297 9.5616 14.7544 9.76247C14.6791 9.96334 14.5433 10.1349 14.3667 10.2525L11.3659 12.2501C11.2321 12.3388 11.1292 12.4684 11.0722 12.6204C11.0152 12.7724 11.007 12.9388 11.0487 13.0957L11.9792 16.6197C12.0342 16.8272 12.0234 17.0472 11.9482 17.2483C11.873 17.4493 11.7373 17.621 11.5606 17.7387C11.3839 17.8565 11.1752 17.9142 10.9646 17.9036C10.754 17.893 10.5522 17.8147 10.3882 17.6798L7.60308 15.3901C7.47918 15.2878 7.32648 15.2283 7.16706 15.2202C7.00763 15.2122 6.84973 15.2561 6.71618 15.3455L3.71544 17.3432C3.53921 17.4623 3.33049 17.5212 3.11948 17.5115ZM1.16753 7.99323C0.763601 7.97291 0.518256 8.23568 0.423375 8.48867C0.328495 8.74165 0.339436 9.10406 0.654103 9.36227L3.43927 11.6509C3.60376 11.7854 3.72195 11.9698 3.77678 12.1775C3.83161 12.3852 3.82024 12.6054 3.7443 12.8063L2.46531 16.2178C2.32074 16.6034 2.48993 16.9219 2.69628 17.0914C2.90263 17.2609 3.24392 17.3618 3.58293 17.136L6.58368 15.1384C6.76018 15.0204 6.96877 14.9625 7.17937 14.9731C7.38996 14.9837 7.59169 15.0622 7.75546 15.1973L10.5406 17.4859C10.8555 17.7447 11.2052 17.6787 11.4275 17.5306C11.6498 17.3824 11.8499 17.0826 11.7447 16.6845L10.8143 13.1612C10.7589 12.9537 10.7696 12.7335 10.845 12.5323C10.9203 12.3312 11.0564 12.1595 11.2335 12.0422L14.2347 10.0453C14.5739 9.81948 14.6209 9.46024 14.5519 9.19926C14.4828 8.93827 14.2654 8.65198 13.8612 8.63165L10.285 8.45179C10.0743 8.44167 9.87239 8.36357 9.70831 8.22877C9.54423 8.09396 9.42649 7.90941 9.37209 7.70175L8.44164 4.17843C8.33648 3.78031 8.01595 3.62415 7.75095 3.61083C7.48595 3.5975 7.15137 3.7207 7.0068 4.10627L5.72728 7.51843C5.65233 7.71955 5.51671 7.89133 5.33998 8.00899C5.16325 8.12665 4.95455 8.18412 4.74396 8.1731L1.16753 7.99323Z" fill="#231F20"/>
<path d="M10.7637 2.15495L11.6944 5.67828C11.7423 5.86069 11.8457 6.02282 11.9898 6.14139C12.1338 6.25996 12.3111 6.32887 12.4962 6.33822L16.0719 6.51806C16.9205 6.56074 17.2171 7.68501 16.5054 8.15903L13.5048 10.1544C13.3496 10.2577 13.2304 10.4083 13.1642 10.5848C13.098 10.7612 13.0883 10.9543 13.1365 11.1365L14.0672 14.6598C14.2879 15.4955 13.3302 16.1331 12.6694 15.5903L9.88422 13.3017C9.74025 13.1832 9.5631 13.1145 9.37819 13.1052C9.19329 13.0959 9.01013 13.1465 8.855 13.2499L5.85426 15.2475C5.14255 15.7213 4.25369 14.9908 4.55715 14.1815L5.83642 10.7693C5.90262 10.5929 5.91237 10.3998 5.86429 10.2176C5.8162 10.0355 5.71275 9.87364 5.56876 9.75531L2.78456 7.46671C2.12278 6.92361 2.53121 5.8348 3.37931 5.87745L6.95526 6.05731C7.14032 6.06653 7.3236 6.01574 7.47881 5.91223C7.63402 5.80872 7.75317 5.65781 7.81917 5.48114L9.09833 2.07119C9.40185 1.26064 10.5431 1.31804 10.7637 2.15495Z" fill="#FCBA28"/>
<path d="M5.32456 15.5193C5.11369 15.5079 4.912 15.4283 4.74874 15.2921C4.58272 15.1588 4.46339 14.9744 4.40844 14.7662C4.35349 14.5581 4.36586 14.3373 4.44371 14.1366L5.72321 10.7247C5.78048 10.5727 5.78899 10.4062 5.74753 10.2492C5.70607 10.0922 5.61677 9.95268 5.49249 9.85086L2.7068 7.56293C2.54285 7.42822 2.42504 7.24397 2.37025 7.03658C2.31546 6.82919 2.32651 6.60931 2.40181 6.40845C2.47711 6.2076 2.6128 6.03608 2.78942 5.91848C2.96605 5.80089 3.17455 5.74324 3.38504 5.75382L6.96147 5.9337C7.12086 5.94214 7.27885 5.89869 7.41262 5.80964C7.54638 5.72058 7.649 5.59052 7.70563 5.43826L8.98514 2.02609C9.06043 1.8252 9.19613 1.65365 9.37277 1.53603C9.54942 1.41841 9.75795 1.36077 9.96846 1.37135C10.179 1.38194 10.3807 1.46022 10.5446 1.59497C10.7086 1.72972 10.8264 1.91402 10.8811 2.12145L11.8118 5.64478C11.8529 5.80195 11.9419 5.94165 12.0661 6.04368C12.1902 6.14571 12.3431 6.20479 12.5025 6.21238L16.0782 6.39222C16.2887 6.40277 16.4904 6.481 16.6544 6.61571C16.8184 6.75042 16.9362 6.93469 16.991 7.1421C17.0458 7.34951 17.0348 7.56941 16.9594 7.77028C16.8841 7.97115 16.7484 8.14267 16.5718 8.26026L13.571 10.2579C13.4372 10.3466 13.3343 10.4763 13.2773 10.6282C13.2203 10.7802 13.2121 10.9466 13.2538 11.1035L14.1842 14.6275C14.2393 14.835 14.2284 15.055 14.1532 15.2561C14.078 15.4571 13.9424 15.6288 13.7657 15.7466C13.589 15.8643 13.3803 15.922 13.1697 15.9114C12.9591 15.9008 12.7573 15.8225 12.5933 15.6876L9.80816 13.398C9.68426 13.2956 9.53156 13.2361 9.37213 13.2281C9.21271 13.22 9.05481 13.2639 8.92126 13.3534L5.92052 15.351C5.74429 15.4701 5.53557 15.5291 5.32456 15.5193ZM3.37261 6.00104C2.96868 5.98072 2.72333 6.24349 2.62845 6.49648C2.53357 6.74946 2.54451 7.11187 2.85918 7.37009L5.64435 9.65873C5.80884 9.79324 5.92703 9.97765 5.98186 10.1853C6.03669 10.393 6.02532 10.6132 5.94938 10.8142L4.67039 14.2256C4.52582 14.6112 4.69501 14.9297 4.90136 15.0992C5.1077 15.2687 5.449 15.3697 5.78801 15.1438L8.78876 13.1462C8.96526 13.0282 9.17384 12.9703 9.38444 12.9809C9.59504 12.9915 9.79677 13.07 9.96054 13.2051L12.7457 15.4938C13.0606 15.7525 13.4103 15.6865 13.6326 15.5384C13.8549 15.3902 14.055 15.0904 13.9498 14.6923L13.0194 11.169C12.9639 10.9615 12.9747 10.7413 13.05 10.5401C13.1254 10.339 13.2614 10.1674 13.4385 10.05L16.4397 8.05312C16.779 7.82729 16.826 7.46805 16.757 7.20707C16.6879 6.94609 16.4704 6.65979 16.0663 6.63946L12.4901 6.4596C12.2794 6.44948 12.0775 6.37139 11.9134 6.23658C11.7493 6.10177 11.6316 5.91722 11.5772 5.70956L10.6467 2.18624C10.5416 1.78812 10.221 1.63197 9.95603 1.61864C9.69103 1.60531 9.35645 1.72852 9.21187 2.11408L7.93236 5.52624C7.85741 5.72736 7.72179 5.89914 7.54506 6.0168C7.36833 6.13446 7.15963 6.19193 6.94904 6.18091L3.37261 6.00104Z" fill="#FCBA28"/>
<path d="M10.7637 2.15495L11.6944 5.67828C11.7423 5.86069 11.8457 6.02282 11.9898 6.14139C12.1338 6.25996 12.3111 6.32887 12.4962 6.33822L16.0719 6.51806C16.9205 6.56074 17.2171 7.68501 16.5054 8.15903L13.5048 10.1544C13.3496 10.2577 13.2304 10.4083 13.1642 10.5848C13.098 10.7612 13.0883 10.9543 13.1365 11.1365L14.0672 14.6598C14.2879 15.4955 13.3302 16.1331 12.6694 15.5903L9.88422 13.3017C9.74025 13.1832 9.5631 13.1145 9.37819 13.1052C9.19329 13.0959 9.01013 13.1465 8.855 13.2499L5.85426 15.2475C5.14255 15.7213 4.25369 14.9908 4.55715 14.1815L5.83642 10.7693C5.90262 10.5929 5.91237 10.3998 5.86429 10.2176C5.8162 10.0355 5.71275 9.87364 5.56876 9.75531L2.78456 7.46671C2.12278 6.92361 2.53121 5.8348 3.37931 5.87745L6.95526 6.05731C7.14032 6.06653 7.3236 6.01574 7.47881 5.91223C7.63402 5.80872 7.75317 5.65781 7.81917 5.48114L9.09833 2.07119C9.40185 1.26064 10.5431 1.31804 10.7637 2.15495Z" stroke="#231F20" stroke-width="0.843913"/>
<path d="M5.32456 15.5193C5.11369 15.5079 4.912 15.4283 4.74874 15.2921C4.58272 15.1588 4.46339 14.9744 4.40844 14.7662C4.35349 14.5581 4.36586 14.3373 4.44371 14.1366L5.72321 10.7247C5.78048 10.5727 5.78899 10.4062 5.74753 10.2492C5.70607 10.0922 5.61677 9.95268 5.49249 9.85086L2.7068 7.56293C2.54285 7.42822 2.42504 7.24397 2.37025 7.03658C2.31546 6.82919 2.32651 6.60931 2.40181 6.40845C2.47711 6.2076 2.6128 6.03608 2.78942 5.91848C2.96605 5.80089 3.17455 5.74324 3.38504 5.75382L6.96147 5.9337C7.12086 5.94214 7.27885 5.89869 7.41262 5.80964C7.54638 5.72058 7.649 5.59052 7.70563 5.43826L8.98514 2.02609C9.06043 1.8252 9.19613 1.65365 9.37277 1.53603C9.54942 1.41841 9.75795 1.36077 9.96846 1.37135C10.179 1.38194 10.3807 1.46022 10.5446 1.59497C10.7086 1.72972 10.8264 1.91402 10.8811 2.12145L11.8118 5.64478C11.8529 5.80195 11.9419 5.94165 12.0661 6.04368C12.1902 6.14571 12.3431 6.20479 12.5025 6.21238L16.0782 6.39222C16.2887 6.40277 16.4904 6.481 16.6544 6.61571C16.8184 6.75042 16.9362 6.93469 16.991 7.1421C17.0458 7.34951 17.0348 7.56941 16.9594 7.77028C16.8841 7.97115 16.7484 8.14267 16.5718 8.26026L13.571 10.2579C13.4372 10.3466 13.3343 10.4763 13.2773 10.6282C13.2203 10.7802 13.2121 10.9466 13.2538 11.1035L14.1842 14.6275C14.2393 14.835 14.2284 15.055 14.1532 15.2561C14.078 15.4571 13.9424 15.6288 13.7657 15.7466C13.589 15.8643 13.3803 15.922 13.1697 15.9114C12.9591 15.9008 12.7573 15.8225 12.5933 15.6876L9.80816 13.398C9.68426 13.2956 9.53156 13.2361 9.37213 13.2281C9.21271 13.22 9.05481 13.2639 8.92126 13.3534L5.92052 15.351C5.74429 15.4701 5.53557 15.5291 5.32456 15.5193ZM3.37261 6.00104C2.96868 5.98072 2.72333 6.24349 2.62845 6.49648C2.53357 6.74946 2.54451 7.11187 2.85918 7.37009L5.64435 9.65873C5.80884 9.79324 5.92703 9.97765 5.98186 10.1853C6.03669 10.393 6.02532 10.6132 5.94938 10.8142L4.67039 14.2256C4.52582 14.6112 4.69501 14.9297 4.90136 15.0992C5.1077 15.2687 5.449 15.3697 5.78801 15.1438L8.78876 13.1462C8.96526 13.0282 9.17384 12.9703 9.38444 12.9809C9.59504 12.9915 9.79677 13.07 9.96054 13.2051L12.7457 15.4938C13.0606 15.7525 13.4103 15.6865 13.6326 15.5384C13.8549 15.3902 14.055 15.0904 13.9498 14.6923L13.0194 11.169C12.9639 10.9615 12.9747 10.7413 13.05 10.5401C13.1254 10.339 13.2614 10.1674 13.4385 10.05L16.4397 8.05312C16.779 7.82729 16.826 7.46805 16.757 7.20707C16.6879 6.94609 16.4704 6.65979 16.0663 6.63946L12.4901 6.4596C12.2794 6.44948 12.0775 6.37139 11.9134 6.23658C11.7493 6.10177 11.6316 5.91722 11.5772 5.70956L10.6467 2.18624C10.5416 1.78812 10.221 1.63197 9.95603 1.61864C9.69103 1.60531 9.35645 1.72852 9.21187 2.11408L7.93236 5.52624C7.85741 5.72736 7.72179 5.89914 7.54506 6.0168C7.36833 6.13446 7.15963 6.19193 6.94904 6.18091L3.37261 6.00104Z" stroke="#231F20" stroke-width="0.843913"/>
</svg>
