<svg fill="none" height="24" viewBox="0 0 24 24" width="24" xmlns="http://www.w3.org/2000/svg"><g fill="#2d264b"><path clip-rule="evenodd" d="m21 11c0-3.74973 0-5.6246-.9549-6.93893-.3084-.42447-.6817-.79776-1.1062-1.10616-1.3143-.95491-3.1892-.95491-6.9389-.95491-3.74973 0-5.6246 0-6.93893.95491-.42447.3084-.79776.68169-1.10616 1.10616-.95491 1.31433-.95491 3.1892-.95491 6.93893v2c0 .8389 0 1.584.01069 2.25h.07013c.85202-.0001 1.371-.0001 1.81868.0708 2.46038.3897 4.39002 2.3193 4.77971 4.7797.0709.4477.07086.9667.07079 1.8187v.0701c.666.0107 1.4111.0107 2.25.0107 3.7497 0 5.6246 0 6.9389-.9549.4245-.3084.7978-.6817 1.1062-1.1062.9549-1.3143.9549-3.1892.9549-6.9389zm-11-3.75c-.41421 0-.75.33579-.75.75s.33579.75.75.75h4c.4142 0 .75-.33579.75-.75s-.3358-.75-.75-.75zm-2 4c-.41421 0-.75.3358-.75.75s.33579.75.75.75h8c.4142 0 .75-.3358.75-.75s-.3358-.75-.75-.75z" fill-rule="evenodd"/><path d="m4.66485 16.8023c-.30839-.0488-.68917-.0522-1.59951-.0523.0944 1.4396.32523 2.4122.88957 3.1889.3084.4245.68169.7978 1.10616 1.1062.77676.5643 1.7493.7952 3.18893.8896-.00013-.9104-.00348-1.2912-.05232-1.5995-.28803-1.8186-1.71429-3.2448-3.53283-3.5329z"/></g></svg>