<svg fill="none" height="24" viewBox="0 0 24 24" width="24" xmlns="http://www.w3.org/2000/svg"><path d="m4.06107 20.2164.44084-.6068zm-1.10616-1.1062-.60676.4409zm14.98399 1.1062-.4408-.6068zm1.1062-1.1062-.6068-.4408zm-16.09019-13.87782-.60676-.44083zm1.10616-1.10615.44084.60676zm4.94792-.19777c.41418-.00496.74592-.34475.74096-.75893-.00497-.41419-.34476-.74592-.75894-.74096zm11.73371 10.25184c.005-.4142-.3267-.754-.7409-.7589-.4142-.005-.754.3267-.759.7409zm-8.9451 1.9955-.0829-.7455zm-4.11983-.2975-.53033.5303zm-.29747-4.1198.74541.0828zm1.1471-2.3867-.53033-.53033zm-.88447 1.0439-.67597-.3249h-.00001zm6.54137 4.613.5303.5303zm-1.044.8844.3249.676zm-2.1403 4.5082c-1.89157 0-3.25001-.001-4.30196-.115-1.03791-.1124-1.68812-.3276-2.19613-.6967l-.88167 1.2136c.80632.5858 1.7507.8481 2.91624.9744 1.1515.1247 2.60536.1237 4.46352.1237zm-9.75-8.25c0 1.8582-.00103 3.312.12373 4.4635.12628 1.1656.38859 2.11.97442 2.9163l1.21353-.8817c-.36909-.508-.58423-1.1582-.69668-2.1961-.11397-1.052-.115-2.4104-.115-4.302zm3.25191 7.4383c-.3608-.2621-.67809-.5794-.94023-.9402l-1.21353.8817c.35466.4881.78394.9174 1.27209 1.2721zm6.49809 2.3117c1.8582 0 3.312.001 4.4635-.1237 1.1656-.1263 2.1099-.3886 2.9163-.9744l-.8817-1.2136c-.508.3691-1.1582.5843-2.1961.6967-1.052.114-2.4104.115-4.302.115zm7.4383-3.2519c-.2621.3608-.5794.6781-.9402.9402l.8817 1.2136c.4881-.3547.9174-.784 1.272-1.2721zm-15.6883-6.4981c0-1.8916.00103-3.25.115-4.30194.11245-1.03792.32759-1.68813.69668-2.19614l-1.21353-.88167c-.58583.80632-.84814 1.7507-.97442 2.91624-.12476 1.1515-.12373 2.60541-.12373 4.46351zm.87023-8.65184c-.48814.35466-.91742.78394-1.27208 1.27209l1.21353.88167c.26214-.3608.57943-.67809.94023-.94023zm5.37078-1.09089c-2.42652.02909-4.09207.16186-5.37078 1.09089l.88168 1.21353c.83436-.60619 2.00628-.77455 4.50708-.80453zm10.25179 11.73373c-.0299 2.5008-.1983 3.6727-.8045 4.5071l1.2135.8817c.9291-1.2787 1.0619-2.9443 1.0909-5.3708zm-.2171-5.03578-5.3718 5.37178 1.0607 1.0607 5.3718-5.3718zm-9.96797.77561 5.37177-5.3718-1.0606-1.06066-5.37183 5.3718zm2.65697 5.52817c-1.1699.13-1.96627.2167-2.55796.1976-.57157-.0185-.80233-.1336-.94864-.2799l-1.06066 1.0606c.5334.5334 1.21584.6944 1.96089.7185.72493.0234 1.64867-.0811 2.77207-.2059zm-5.07982-3.7546c-.12482 1.1234-.22931 2.0471-.2059 2.772.02406.7451.18507 1.4275.71846 1.9609l1.06066-1.0606c-.14631-.1464-.26145-.3771-.2799-.9487-.01911-.5917.06751-1.388.19751-2.558zm1.36219-2.83423c-.45512.45513-.81446.80066-1.03011 1.24933l1.35195.6498c.07944-.1653.21138-.311.73882-.83847zm.12864 2.99983c.08237-.7413.11376-.9354.1932-1.1007l-1.35196-.6498c-.21565.4487-.26099.9452-.33207 1.5849zm5.52819 2.657c-.5274.5275-.6732.6594-.8384.7389l.6497 1.3519c.4487-.2157.7943-.575 1.2494-1.0301zm-1.7735 2.4229c.6397-.0711 1.1361-.1164 1.5848-.3321l-.6497-1.3519c-.1653.0794-.3594.1108-1.1008.1931zm7.1453-12.39087c.6817.68166 1.1385 1.14068 1.4341 1.52816.2824.37017.3463.58564.3463.76994h1.5c0-.64413-.2695-1.17621-.6538-1.67981-.371-.4863-.9142-1.02728-1.5659-1.67895zm1.0607 5.65687c.6517-.65169 1.1949-1.19267 1.5659-1.67896.3843-.50361.6538-1.03568.6538-1.67981h-1.5c0 .18429-.0639.39976-.3463.76993-.2956.38748-.7524.8465-1.4341 1.52816zm0-6.71753c-.6517-.65167-1.1927-1.19491-1.679-1.56594-.5036-.38423-1.0356-.65373-1.6798-.65373v1.5c.1843 0 .3998.06383.77.34627.3875.29563.8465.7524 1.5281 1.43406zm-5.6569 1.06066c.6817-.68166 1.1407-1.13843 1.5282-1.43406.3702-.28244.5856-.34627.7699-.34627v-1.5c-.6441 0-1.1762.2695-1.6798.65373-.4863.37103-1.0272.91427-1.6789 1.56594zm5.6569 4.59619-5.6569-5.65685-1.0606 1.06066 5.6568 5.65687z" fill="#2d264b"/></svg>