<svg fill="none" height="24" viewBox="0 0 24 24" width="24" xmlns="http://www.w3.org/2000/svg"><g fill="#2d264b"><path d="m8.25 3.29883c-.9567.12561-1.88887.49263-2.7 1.10098l-2.2 1.65c-.69247.51934-1.1 1.33441-1.1 2.2v8.62899c0 2.213 2.52641 3.4762 4.29677 2.1484.51551-.3866 1.09928-.6361 1.70323-.7485z"/><path d="m9.75 18.2787c.6039.1124 1.1877.3619 1.7032.7485l.0968.0726c.8111.6083 1.7433.9754 2.7 1.101v-14.97984c-.6039-.11244-1.1877-.36194-1.7032-.74857l-.0968-.07258c-.8111-.60835-1.7433-.97537-2.7-1.10098z"/><path d="m15.75 5.22096v14.97984c.9567-.1256 1.8889-.4926 2.7-1.101l2.2-1.65c.6925-.5193 1.1-1.3344 1.1-2.2v-8.62903c0-2.21296-2.5264-3.47616-4.2968-2.14838-.5155.38663-1.0993.63613-1.7032.74857z"/></g></svg>