<svg fill="none" height="24" viewBox="0 0 24 24" width="24" xmlns="http://www.w3.org/2000/svg"><path d="m19.5304 17.4698c-.2929-.2929-.7678-.2929-1.0607 0-.2929.2928-.2929.7677 0 1.0606zm2.9392 5.0606c.2929.2929.7678.2929 1.0607 0s.2929-.7678 0-1.0607zm-13.13448-17.72808c.40911-.0648.68828-.44898.62344-.85809-.0648-.40912-.44898-.68824-.85809-.62344zm-5.01436 3.29818c-.0648.40911.21432.79329.62344.85809.40911.0648.79329-.21433.85809-.62344zm14.14894 10.4299 3.9999 4 1.0607-1.0607-3.9999-3.9999zm-7.4697-.2804c-4.55635 0-8.25-3.6937-8.25-8.25h-1.5c0 5.3848 4.36522 9.75 9.75 9.75zm8.25-8.25c0 4.5563-3.6937 8.25-8.25 8.25v1.5c5.3848 0 9.75-4.3652 9.75-9.75zm-8.25-8.25c4.5563 0 8.25 3.69365 8.25 8.25h1.5c0-5.38478-4.3652-9.75-9.75-9.75zm0-1.5c-5.38478 0-9.75 4.36522-9.75 9.75h1.5c0-4.55635 3.69365-8.25 8.25-8.25zm-1.89953 3.07079c-2.46039.38968-4.39003 2.31933-4.77971 4.77971l1.48153.23465c.28803-1.81854 1.71429-3.2448 3.53283-3.53283z" fill="#2d264b"/></svg>