<svg fill="none" height="24" viewBox="0 0 24 24" width="24" xmlns="http://www.w3.org/2000/svg"><g fill="#2d264b"><path d="m18.9945 4.64243c-.6132-.1933-1.3024-.28715-2.0985-.33628-.91-.05615-2.0159-.05615-3.3727-.05615h-3.0626c-1.60335-.00001-2.86031-.00001-3.8645.09547-1.02355.09732-1.86165.2991-2.60047.75185-.7737.47412-1.4242 1.12462-1.89832 1.89831-.01679.02741-.03325.05496-.04936.08265.07729-1.44315.27918-2.39896.80649-3.15561.27595-.39597.60997-.74419.98978-1.03188 1.17604-.89079 2.85364-.89079 6.20888-.89079h5.3687c1.6872 0 2.5308 0 3.055.54645.4025.41969.4959 1.03583.5176 2.09598z"/><path d="m2.7368 7.38751c-.7368 1.20234-.7368 2.83909-.7368 6.11249s0 4.9101.7368 6.1125c.41228.6728.97793 1.2384 1.65071 1.6507 1.20234.7368 2.83906.7368 6.11249.7368h3c3.2734 0 4.9101 0 6.1125-.7368.6728-.4123 1.2384-.9779 1.6507-1.6507.4839-.7896.65-1.7666.707-3.2716h-6.3337c-1.9205 0-3.4773-1.5568-3.4773-3.4772 0-1.9205 1.5568-3.47732 3.4773-3.47732h6.2412c-.1002-.82765-.2826-1.45732-.6145-1.99887-.4123-.67278-.9779-1.23843-1.6507-1.65071-.1915-.11737-.3941-.21604-.6125-.29899-1.1528-.43781-2.748-.43781-5.5-.43781h-3c-3.27343 0-4.91015 0-6.11249.7368-.67278.41228-1.23843.97793-1.65071 1.65071z"/><path clip-rule="evenodd" d="m21.9779 10.8864h-6.3414c-1.0921 0-1.9773.8852-1.9773 1.9773 0 1.092.8852 1.9772 1.9773 1.9772h6.3612c.0023-.4141.0023-.8598.0023-1.3409 0-1.0172 0-1.8764-.0221-2.6136zm-6.3414 1.2273c-.4143 0-.75.3357-.75.75 0 .4142.3357.75.75.75h2.7272c.4142 0 .75-.3358.75-.75 0-.4143-.3358-.75-.75-.75z" fill-rule="evenodd"/></g></svg>